<?xml version="1.0" encoding="UTF-8" standalone="no"?>
<svg
   viewBox="0 0 500 500"
   version="1.1"
   id="svg4"
   sodipodi:docname="CLVR_logo_prototype_Clement_2.svg"
   inkscape:version="1.4.2 (ebf0e940, 2025-05-08)"
   xmlns:inkscape="http://www.inkscape.org/namespaces/inkscape"
   xmlns:sodipodi="http://sodipodi.sourceforge.net/DTD/sodipodi-0.dtd"
   xmlns="http://www.w3.org/2000/svg"
   xmlns:svg="http://www.w3.org/2000/svg"
   xmlns:bx="https://boxy-svg.com">
  <sodipodi:namedview
     id="namedview4"
     pagecolor="#ffffff"
     bordercolor="#000000"
     borderopacity="0.25"
     inkscape:showpageshadow="2"
     inkscape:pageopacity="0.0"
     inkscape:pagecheckerboard="0"
     inkscape:deskcolor="#d1d1d1"
     inkscape:zoom="1.7741978"
     inkscape:cx="211.08131"
     inkscape:cy="263.49936"
     inkscape:window-width="1440"
     inkscape:window-height="900"
     inkscape:window-x="0"
     inkscape:window-y="0"
     inkscape:window-maximized="0"
     inkscape:current-layer="g3" />
  <defs
     id="defs1">
    <style
       bx:fonts="Basic"
       id="style1">@import url(https://fonts.googleapis.com/css2?family=Basic%3Aital%2Cwght%400%2C400&amp;display=swap);</style>
  </defs>
  <g
     id="Layer_1"
     transform="matrix(1, 0, 0, 1, -93.622887, 237.862717)">
    <g
       style=""
       transform="matrix(0.983368, 0, 0, 0.997422, -3.328216, 8.423548)"
       id="g3"
       inkscape:label="cloverwave">
      <path
         style="display:inline;fill:#6cd3e0;stroke-width:10px"
         d="M 198.2249,13.436791 C 194.20443,9.5132742 190.31269,3.2414564 188.93363,-0.62500678 186.781,-6.6643014 188.81047,-12.882242 193.46523,-14.515425 c 3.65481,-1.283055 7.84555,0.646242 10.51883,4.459263 2.52299,-3.855674 6.63628,-5.855778 10.34107,-4.634705 4.71598,1.553677 6.98632,7.7356982 5.06653,13.80926939 -1.227,3.88930271 -4.87707,10.22583921 -8.743,14.21626561 5.34889,-1.502596 12.66163,-1.696842 16.6681,-0.928159 6.25616,1.204769 10.61933,6.139379 9.74236,11.029281 -0.68947,3.834578 -4.40376,6.501415 -9.00002,6.887169 2.08412,4.161698 1.78731,8.763632 -1.07838,11.366696 -3.65307,3.317285 -10.08965,2.142196 -14.37856,-2.624838 -2.74707,-3.052646 -6.41619,-9.458083 -7.95739,-14.861387 -1.32735,5.427047 -4.74729,11.894045 -7.37377,14.990762 -4.1024,4.836457 -10.49417,6.117728 -14.27169,2.865 -2.9696,-2.555257 -3.44293,-7.149589 -1.51882,-11.346432 -4.6083,-0.308953 -8.42552,-2.906726 -9.26495,-6.735854 -1.06378,-4.868902 3.10546,-9.876027 9.31211,-11.183433 3.97206,-0.836528 11.27715,-0.768722 16.68501,0.640099 0.004,0.0027 0.009,0.0034 0.0122,0.0032 z"
         id="path2"
         inkscape:label="clover" />
      <path
         fill="none"
         paint-order="fill stroke markers"
         d="m 197.10115,22.910913 0.21994,-0.148033 0.21995,-0.148711 0.21995,-0.149369 0.21994,-0.150013 0.21995,-0.150642 0.21995,-0.151252 0.21994,-0.151846 0.21995,-0.152427 0.21994,-0.152986 0.21995,-0.153534 0.21995,-0.154061 0.21994,-0.154572 0.21995,-0.155068 0.21995,-0.155547 0.21994,-0.156007 0.21995,-0.156452 0.21995,-0.15688 0.21994,-0.15729 0.21995,-0.157683 0.21995,-0.15806 0.21994,-0.158418 0.21995,-0.158761 0.21995,-0.159084 0.21994,-0.159394 0.21995,-0.159682 0.21994,-0.159957 0.21995,-0.160211 0.21995,-0.160449 0.21994,-0.16067 0.21995,-0.160872 0.21995,-0.161059 0.21994,-0.161227 0.21995,-0.161378 0.21995,-0.161512 0.21994,-0.161627 0.21995,-0.161724 0.21995,-0.161807 0.21994,-0.161869 0.21995,-0.161914 0.21995,-0.161942 0.21994,-0.161954 0.21995,-0.161945 0.21994,-0.161921 0.21995,-0.16188 0.21995,-0.161819 0.21994,-0.161741 0.21995,-0.161646 0.21995,-0.161534 0.21994,-0.161405 0.21995,-0.161256 0.21995,-0.161091 0.21994,-0.160909 0.21995,-0.16071 0.21995,-0.160491 0.21994,-0.160257 0.21995,-0.160003 0.21995,-0.159736 0.21994,-0.159447 0.21995,-0.159145 0.21994,-0.158822 0.21995,-0.158483 0.21995,-0.158128 0.21994,-0.157754 0.21995,-0.157365 0.21995,-0.156957 0.21994,-0.156532 0.21995,-0.156093 0.21995,-0.155633 0.21994,-0.155157 0.21995,-0.154666 0.21995,-0.154157 0.21994,-0.153633 0.21995,-0.15309 0.21995,-0.152532 0.21994,-0.151955 0.21995,-0.151364 0.21994,-0.150756 0.21995,-0.150131 0.21995,-0.149491 0.21994,-0.148834 0.21995,-0.148159 0.21995,-0.147471 0.21994,-0.1467652 0.21995,-0.1460452 0.21995,-0.1453075 0.21994,-0.1445544 0.21995,-0.1437856 0.21995,-0.1430013 0.21994,-0.1422032 0.21995,-0.1413878 0.21995,-0.1405552 0.21994,-0.1397121 0.21995,-0.1388502 0.21994,-0.1379742 0.21995,-0.1370829 0.21995,-0.1361794 0.21994,-0.1352569 0.21995,-0.1343223 0.21995,-0.1333722 0.21994,-0.1324082 0.21995,-0.1314288 0.21995,-0.1304371 0.21994,-0.1294301 0.21995,-0.128409 0.21995,-0.1273726 0.21994,-0.1263257 0.21995,-0.1252615 0.21995,-0.1241871 0.21994,-0.1230969 0.21995,-0.1219931 0.21994,-0.1208772 0.21995,-0.119749 0.21995,-0.1186055 0.21994,-0.1174515 0.21995,-0.1162837 0.21995,-0.115102 0.21994,-0.1139084 0.21995,-0.1127043 0.21995,-0.1114864 0.21994,-0.1102581 0.21995,-0.1090144 0.21995,-0.1077619 0.21994,-0.1064956 0.21995,-0.1052207 0.21995,-0.1039321 0.21994,-0.1026312 0.21995,-0.1013217 0.21994,-0.1000002 0.21995,-0.098668 0.21995,-0.097324 0.21994,-0.095972 0.21995,-0.094607 0.21995,-0.093232 0.21994,-0.091848 0.21995,-0.090454 0.21995,-0.08905 0.21994,-0.087635 0.21995,-0.086211 0.21995,-0.084779 0.21994,-0.083338 0.21995,-0.081886 0.21995,-0.080428 0.21994,-0.078957 0.21995,-0.077481 0.21994,-0.075995 0.21995,-0.074501 0.21995,-0.072999 0.21994,-0.071489 0.21995,-0.069973 0.21995,-0.068446 0.21994,-0.066915 0.21995,-0.065374 0.21995,-0.063826 0.21994,-0.062273 0.21995,-0.060713 0.21995,-0.059145 0.21994,-0.057571 0.21995,-0.055992 0.21995,-0.054406 0.21994,-0.052813 0.21995,-0.051215 0.21994,-0.049614 0.21995,-0.048004 0.21995,-0.046391 0.21994,-0.044772 0.21995,-0.043148 0.21995,-0.041521 0.21994,-0.039886 0.21995,-0.03825 0.21995,-0.036608 0.21994,-0.034963 0.21995,-0.033315 0.21995,-0.03166 0.21994,-0.030005 0.21995,-0.028347 0.21995,-0.026683 0.21994,-0.025018 0.21995,-0.023349 0.21994,-0.02168 0.21995,-0.020006 0.21995,-0.018331 0.21994,-0.016653 0.21995,-0.014977 0.21995,-0.013302 0.21994,-0.011609 0.21995,-0.00993 0.21995,-0.00824 0.21994,-0.006565 0.21995,-0.004872 0.21995,-0.003196 0.21994,-0.001555 0.21995,1.7275e-4 0.21995,0.001883 0.21994,0.003559 0.21995,0.005252 0.21994,0.006927 0.21995,0.00862 0.21995,0.010296 0.21994,0.011989 0.21995,0.013665 0.21995,0.01534 0.21994,0.017033 0.21995,0.018702 0.21995,0.020376 0.21994,0.02205 0.21995,0.023719 0.21995,0.025388 0.21994,0.027051 0.21995,0.028713 0.21995,0.030371 0.21994,0.032028 0.21995,0.03368 0.21994,0.035327 0.21995,0.036972 0.21995,0.038612 0.21994,0.040249 0.21995,0.041882 0.21995,0.043507 0.21994,0.045131 0.21995,0.046748 0.21995,0.04836 0.21994,0.049968 0.21995,0.051571 0.21995,0.053166 0.21994,0.054757 0.21995,0.056343 0.21995,0.05792 0.21994,0.059492 0.21995,0.061059 0.21994,0.062619 0.21995,0.06417 0.21995,0.065714 0.21994,0.067254 0.21995,0.068786 0.21995,0.070308 0.21994,0.071825 0.21995,0.073333 0.21995,0.074832 0.21994,0.076325 0.21995,0.077807 0.21995,0.079284 0.21994,0.080751 0.21995,0.082209 0.21995,0.083656 0.21994,0.085097 0.21995,0.086527 0.21995,0.087951 0.21994,0.089361 0.21995,0.090763 0.21994,0.092156 0.21995,0.093536 0.21995,0.094911 0.21994,0.096271 0.21995,0.097623 0.21995,0.098964 0.21994,0.1002939 0.21995,0.101612 0.21995,0.1029214 0.21994,0.104217 0.21995,0.1055041 0.21995,0.1067772 0.21994,0.10804 0.21995,0.1092908 0.21995,0.1105293 0.21994,0.1117577 0.21995,0.112972 0.21994,0.1141744 0.21995,0.1153647 0.21995,0.1165428 0.21994,0.1177071 0.21995,0.1188612 0.21995,0.1199978 0.21994,0.1211259 0.21995,0.1222401 0.21995,0.1233389 0.21994,0.1244254 0.21995,0.1254982 0.21995,0.1265589 0.21994,0.1276041 0.21995,0.1286353 0.21995,0.1296546 0.21994,0.1306566 0.21995,0.1316481 0.21994,0.1326225 0.21995,0.1335846 0.21995,0.1345296 0.21994,0.1354625 0.21995,0.1363798 0.21995,0.1372815 0.21994,0.1381695 0.21995,0.1390419 0.21995,0.1399004 0.21994,0.1407418 0.21995,0.1415692 0.21995,0.1423794 0.21994,0.1431775 0.21995,0.1439566 0.21995,0.1447237 0.21994,0.1454716 0.21995,0.1462059 0.21994,0.1469223 0.21995,0.147624 0.21995,0.148312 0.21994,0.14898 0.21995,0.149633 0.21995,0.150271 0.21994,0.150892 0.21995,0.151496 0.21995,0.152084 0.21994,0.152657 0.21995,0.153211 0.21995,0.15375 0.21994,0.154271 0.21995,0.154778 0.21995,0.155265 0.21994,0.155734 0.21995,0.156191 0.21994,0.156628 0.21995,0.15705 0.21995,0.157452 0.21994,0.157838 0.21995,0.158207 0.21995,0.158561 0.21994,0.158895 0.21995,0.159212 0.21995,0.159513 0.21994,0.159796 0.21995,0.160062 0.21995,0.160309 0.21994,0.160543 0.21995,0.160754 0.21995,0.160951 0.21994,0.161129 0.21995,0.161291 0.21994,0.161434 0.21995,0.16156 0.21995,0.16167 0.21994,0.16176 0.21995,0.161833 0.21995,0.16189 0.21994,0.161928 0.21995,0.161949 0.21995,0.161952 0.21994,0.161938 0.21995,0.161905 0.21995,0.161857 0.21994,0.16179 0.21995,0.161705 0.21995,0.161603 0.21994,0.161484 0.21995,0.161346 0.21994,0.16119 0.21995,0.161019 0.21995,0.160831 0.21994,0.160622 0.21995,0.160397 0.21995,0.160158 0.21994,0.159896 0.21995,0.15962 0.21995,0.159326 0.21994,0.159015 0.21995,0.158686 0.21995,0.158341 0.21994,0.157977 0.21995,0.157599 0.21995,0.1572 0.21994,0.156787 0.21995,0.156355 0.21994,0.155907 0.21995,0.155441 0.21995,0.154961 0.21994,0.15446 0.21995,0.153947 0.21995,0.153413 0.21994,0.152863 0.21995,0.152299 0.21995,0.151717 0.21994,0.151119 0.21995,0.150504 0.21995,0.149873 0.21994,0.149224 0.21995,0.148562 0.21995,0.147881 0.21994,0.147186 0.21995,0.146473 0.21994,0.145747 0.21995,0.145003 0.21995,0.144244 0.21994,0.143467 0.21995,0.142679 0.21995,0.141873 0.21994,0.141051 0.21995,0.140213 0.21995,0.139363 0.21994,0.138496 0.21995,0.137613 0.21995,0.136717 0.21994,0.135804 0.21995,0.134879 0.21995,0.133937 0.21994,0.132982 0.21995,0.132011 0.21994,0.131028 0.21995,0.130027 0.21995,0.129018 0.21994,0.127987 0.21995,0.126949 0.21995,0.125894 0.21994,0.124827 0.21995,0.123744 0.21995,0.122648 0.21994,0.121542 0.21995,0.12042 0.21995,0.119284 0.21994,0.118137 0.21995,0.116977 0.21995,0.115805 0.21994,0.114617 0.21995,0.113421 0.21994,0.11221 0.21995,0.110987 0.21995,0.109752 0.21994,0.108507 0.21995,0.107248 0.21995,0.105978 0.21994,0.104697 0.21995,0.103404 0.21995,0.1021 0.21994,0.100785 0.21995,0.09946 0.21995,0.09812 0.21994,0.09677 0.21995,0.09542 0.21995,0.09405 0.21994,0.09267 0.21995,0.09128 0.21994,0.08988 0.21995,0.08848 0.21995,0.08706 0.21994,0.08563 0.21995,0.08419 0.21995,0.08275 0.21994,0.08129 0.21995,0.07983 0.21995,0.07836 0.21994,0.07688 0.21995,0.07539 0.21995,0.07389 0.21994,0.07239 0.21995,0.07087 0.21995,0.06935 0.21994,0.06782 0.21995,0.06629 0.21994,0.06475 0.21995,0.0632 0.21995,0.06164 0.21994,0.06007 0.21995,0.05851 0.21995,0.05693 0.21994,0.05535 0.21995,0.05376 0.21995,0.05216 0.21994,0.05056 0.21995,0.04896 0.21995,0.04735 0.21994,0.04573 0.21995,0.04411 0.21995,0.04249 0.21994,0.04086 0.21995,0.03922 0.21994,0.03758 0.21995,0.03594 0.21995,0.03429 0.21994,0.03264 0.21995,0.03099 0.21995,0.02933 0.21994,0.02767 0.21995,0.02601 0.21995,0.02434 0.21994,0.02267 0.21995,0.021 0.21995,0.01933 0.21994,0.01765 0.21995,0.01596 0.21995,0.01429 0.21994,0.01261 0.21995,0.01092 0.21994,0.0092 0.21995,0.0076 0.21995,0.0059 0.21994,0.0042 0.21995,0.0025 0.21995,8.64e-4 0.21994,-8.64e-4 0.21995,-0.0026 0.21995,-0.0043 0.21994,-0.0059 0.21995,-0.0076 0.21995,-0.0093 0.21994,-0.01099 0.21995,-0.01266 0.21995,-0.01436 0.21994,-0.01603 0.21995,-0.01771 0.21994,-0.01938 0.21995,-0.02106 0.21995,-0.02273 0.21994,-0.0244 0.21995,-0.02606 0.21995,-0.02773 0.21994,-0.02939 0.21995,-0.03104 0.21995,-0.0327 0.21994,-0.03435 0.21995,-0.036 0.21995,-0.03764 0.21994,-0.03928 0.21995,-0.04091 0.21995,-0.04254 0.21994,-0.04417 0.21995,-0.04579 0.21994,-0.04741 0.21995,-0.04902 0.21995,-0.05062 0.21994,-0.05222 0.21995,-0.05381 0.21995,-0.0554 0.21994,-0.05698 0.21995,-0.05856 0.21995,-0.06013 0.21994,-0.06169 0.21995,-0.06325 0.21995,-0.0648 0.21994,-0.06634 0.21995,-0.06788 0.21995,-0.0694 0.21994,-0.07093 0.21995,-0.07244 0.21994,-0.07394 0.21995,-0.07544 0.21995,-0.07693 0.21994,-0.07841 0.21995,-0.07988 0.21995,-0.08134 0.21994,-0.0828 0.21995,-0.08424 0.21995,-0.08568 0.21994,-0.08711 0.21995,-0.08852 0.21995,-0.08993 0.21994,-0.09133 0.21995,-0.09272 0.21995,-0.0941 0.21994,-0.09547 0.21995,-0.09682 0.21994,-0.09817 0.21995,-0.09951 0.21995,-0.100831 0.21994,-0.102146 0.21995,-0.10345 0.21995,-0.104744 0.21994,-0.106022 0.21995,-0.107294 0.21995,-0.108549 0.21994,-0.109797 0.21995,-0.111032 0.21995,-0.112254 0.21994,-0.113462 0.21995,-0.11466 0.21995,-0.115847 0.21994,-0.117018 0.21995,-0.118179 0.21994,-0.119325 0.21995,-0.120459 0.21995,-0.121581 0.21994,-0.122687 0.21995,-0.123785 0.21995,-0.124862 0.21994,-0.125932 0.21995,-0.126986 0.21995,-0.128027 0.21994,-0.129052 0.21995,-0.130064 0.21995,-0.131062 0.21994,-0.132046 0.21995,-0.133016 0.21995,-0.13397 0.21994,-0.134913 0.21995,-0.135837 0.21994,-0.136748 0.21995,-0.137646 0.21995,-0.138526 0.21994,-0.139394 0.21995,-0.140244 0.21995,-0.14108 0.21994,-0.141901 0.21995,-0.142706 0.21995,-0.143497 0.21994,-0.144271 0.21995,-0.14503 0.21995,-0.145772 0.21994,-0.146499 0.21995,-0.147212 0.21995,-0.147905 0.21994,-0.148585 0.21995,-0.149248 0.21995,-0.149896 0.21994,-0.150524 0.21995,-0.151142 0.21994,-0.151737 0.21995,-0.15232 0.21995,-0.152884 0.21994,-0.153432 0.21995,-0.153964 0.21995,-0.154479 0.21994,-0.154978 0.21995,-0.155458 0.21995,-0.155923 0.21994,-0.156371 0.21995,-0.156802 0.21995,-0.157214 0.21994,-0.157612 0.21995,-0.157991 0.21995,-0.158354 0.21994,-0.158697 0.21995,-0.159026 0.21994,-0.159338 0.21995,-0.159631 0.21995,-0.159905 0.21994,-0.160166 0.21995,-0.160405 0.21995,-0.160631 0.21994,-0.160836 0.21995,-0.161026 0.21995,-0.161197 0.21994,-0.161351 0.21995,-0.161488 0.21995,-0.161606 0.21994,-0.161709 0.21995,-0.161793 0.21995,-0.161859 0.21994,-0.161907 0.21995,-0.161938 0.21994,-0.161952 0.21995,-0.161949 0.21995,-0.161928 0.21994,-0.161888 0.21995,-0.161831 0.21995,-0.161757 0.21994,-0.161665 0.21995,-0.161557 0.21995,-0.16143 0.21994,-0.161285 0.21995,-0.161123 0.21995,-0.160943 0.21994,-0.160748 0.21995,-0.160534 0.21995,-0.160301 0.21994,-0.160053 0.21995,-0.159786 0.21994,-0.159502 0.21995,-0.159202 0.21995,-0.158882 0.21994,-0.158549 0.21995,-0.158195 0.21995,-0.157825 0.21994,-0.157438 0.21995,-0.157034 0.21995,-0.156612 0.21994,-0.156176 0.21995,-0.155719 0.21995,-0.155248 0.21994,-0.154758 0.21995,-0.154255 0.21995,-0.15373 0.21994,-0.153192 0.21995,-0.152636 0.21994,-0.152064 0.21995,-0.151475 0.21995,-0.15087 0.21994,-0.15025 0.21995,-0.14961 0.21995,-0.148956 0.21994,-0.148288 0.21995,-0.1476 0.21995,-0.1468961 0.21994,-0.14618 0.21995,-0.1454457 0.21995,-0.144696 0.21994,-0.143929 0.21995,-0.1431499 0.21995,-0.1423517 0.21994,-0.1415399 0.21995,-0.1407123 0.21994,-0.1398694 0.21995,-0.1390108 0.21995,-0.1381383 0.21994,-0.1372505 0.21995,-0.1363469 0.21995,-0.1354297 0.21994,-0.1344968 0.21995,-0.1335501 0.21995,-0.1325879 0.21994,-0.1316136 0.21995,-0.130622 0.21995,-0.1296183 0.21994,-0.1285991 0.21995,-0.1275661 0.21995,-0.1265208 0.21994,-0.125462 0.21995,-0.1243857 0.21994,-0.1233008 0.21995,-0.1222004 0.21995,-0.1210862 0.21994,-0.1199581 0.21995,-0.1188196 0.21995,-0.1176657 0.21994,-0.1165014 0.21995,-0.1153232 0.21995,-0.1141312 0.21994,-0.1129289 0.21995,-0.1117144 0.21995,-0.1104862 0.21994,-0.1092458 0.21995,-0.1079968 0.21995,-0.1067323 0.21994,-0.1054574 0.21995,-0.1041722 0.21994,-0.1028748 0.21995,-0.1015653 0.21995,-0.1002472 0.21994,-0.098915 0.21995,-0.097575 0.21995,-0.096224 0.21994,-0.094861 0.21995,-0.093488 0.21995,-0.092107 0.21994,-0.090713 0.21995,-0.08931 0.21995,-0.087899 0.21994,-0.086477 0.21995,-0.085047 0.21995,-0.083604 0.21994,-0.082157 0.21995,-0.080699 0.21994,-0.079232 0.21995,-0.077755 0.21995,-0.076271 0.21994,-0.074779 0.21995,-0.073279 0.21995,-0.071771 0.21994,-0.070254 0.21995,-0.068731 0.21995,-0.067198 0.21994,-0.065661 0.21995,-0.064115 0.21995,-0.062563 0.21994,-0.061003 0.21995,-0.059437 0.21995,-0.057865 0.21994,-0.056286 0.21995,-0.0547 0.21994,-0.053111 0.21995,-0.051512 0.21995,-0.049911 0.21994,-0.048304 0.21995,-0.046691 0.21995,-0.045072 0.21994,-0.04345 0.21995,-0.041823 0.21995,-0.040191 0.21994,-0.038555 0.21995,-0.036913 0.21995,-0.035269 0.21994,-0.033621 0.21995,-0.031969 0.21995,-0.030313 0.21994,-0.028654 0.21995,-0.026992 0.21994,-0.025327 0.21995,-0.02366 0.21995,-0.021991 0.21994,-0.020317 0.21995,-0.018642 0.21995,-0.016964 0.21994,-0.015288 0.21995,-0.013613 0.21995,-0.01192 0.21994,-0.010244 0.21995,-0.00855 0.21995,-0.006875 0.21994,-0.005183 0.21995,-0.003507 0.21995,-0.001814 0.21994,-1.2783e-4 0.21995,0.001555 0.21994,0.003248 0.21995,0.004941 0.21995,0.006616 0.21994,0.008309 0.21995,0.00998 0.21995,0.011678 0.21994,0.013354 0.21995,0.015029 0.21995,0.016705 0.21994,0.018391 0.21995,0.020065 0.21995,0.021739 0.21994,0.023409 0.21995,0.025076 0.21995,0.026744 0.21994,0.028404 0.21995,0.030064 0.21994,0.03172 0.21995,0.033374 0.21995,0.035022 0.21994,0.036666 0.21995,0.038307 0.21995,0.039945 0.21994,0.041578 0.21995,0.043207 0.21995,0.044829 0.21994,0.046447 0.21995,0.048063 0.21995,0.049669 0.21994,0.051272 0.21995,0.05287 0.21995,0.054463 0.21994,0.056047 0.21995,0.057628 0.21994,0.059202 0.21995,0.060767 0.21995,0.062328 0.21994,0.063883 0.21995,0.065428 0.21995,0.066969 0.21994,0.068501 0.21995,0.070026 0.21995,0.071543 0.21994,0.073053 0.21995,0.074554 0.21995,0.076048 0.21994,0.077532 0.21995,0.079011 0.21995,0.080478 0.21994,0.081939 0.21995,0.083389 0.21994,0.084829 0.21995,0.086263 0.21995,0.087687 0.21994,0.0891 0.21995,0.090502 0.21995,0.091898 0.21994,0.09328 0.21995,0.094657 0.21995,0.096018 0.21994,0.097373 0.21995,0.098715 0.21995,0.1000468 0.21994,0.1013684 0.21995,0.1026796 0.21995,0.1039769 0.21994,0.1052657 0.21995,0.1065423 0.21994,0.107805 0.21995,0.109061 0.21995,0.1102996 0.21994,0.1115296 0.21995,0.1127475 0.21995,0.1139533 0.21994,0.1151435 0.21995,0.1163252 0.21995,0.1174912 0.21994,0.1186469 0.21995,0.1197888 0.21995,0.1209186 0.21994,0.1220328 0.21995,0.123135 0.21995,0.1242251 0.21994,0.1252995 0.21995,0.1263637 0.21994,0.1274106 0.21995,0.1284453 0.21995,0.1294646 0.21994,0.1304734 0.21995,0.1314633 0.21995,0.1324428 0.21994,0.1334067 0.21995,0.1343569 0.21995,0.1352897 0.21994,0.1362105 0.21995,0.1371157 0.21995,0.1380054 0.21994,0.1388812 0.21995,0.1397415 0.21995,0.1405862 0.21994,0.1414155 0.21995,0.1422326 0.21994,0.1430289 0.21995,0.1438133 0.21995,0.144582 0.21994,0.1453334 0.21995,0.1460711 0.21995,0.1467918 0.21994,0.147494 0.21995,0.148186 0.21995,0.148856 0.21994,0.149514 0.21995,0.150153 0.21995,0.150778 0.21994,0.151385 0.21995,0.151978 0.21995,0.152551 0.21994,0.153109 0.21995,0.153651 0.21994,0.154175 0.21995,0.154684 0.21995,0.155175 0.21994,0.15565 0.21995,0.156108 0.21995,0.156549 0.21994,0.156971 0.21995,0.157378 0.21995,0.157768 0.21994,0.158141 0.21995,0.158496 0.21995,0.158834 0.21994,0.159155 0.21995,0.159457 0.21995,0.159745 0.21994,0.160013 0.21995,0.160266 0.21994,0.1605 0.21995,0.160717 0.21995,0.160915 0.21994,0.161097 0.21995,0.161263 0.21995,0.161408 0.21994,0.161539 0.21995,0.16165 0.21995,0.161745 0.21994,0.16182 0.21995,0.161882 0.21995,0.161922 0.21994,0.161947 0.21995,0.161952 0.21995,0.161942 0.21994,0.161914 0.21995,0.161866 0.21994,0.161803 0.21995,0.161723 0.21995,0.161623 0.21994,0.161507 0.21995,0.161373 0.21995,0.161221 0.21994,0.161052 0.21995,0.160868 0.21995,0.160661 0.21994,0.160441 0.21995,0.160202 0.21995,0.159946 0.21994,0.159674 0.21995,0.159381 0.21995,0.159074 0.21994,0.15875 0.21995,0.158405 0.21994,0.158046 0.21995,0.157672 0.21995,0.157274 0.21994,0.156864 0.21995,0.156438 0.21995,0.15599 0.21994,0.155531 0.21995,0.155051 0.21995,0.154555 0.21994,0.154042 0.21995,0.153513 0.21995,0.152967 0.21994,0.152406 0.21995,0.151827 0.21995,0.15123 0.21994,0.150619 0.21995,0.149991 0.21995,0.149347 0.21994,0.148686 0.21995,0.148009 0.21994,0.147315 0.21995,0.146609 0.21995,0.145883 0.21994,0.145141 0.21995,0.144385 0.21995,0.143615 0.21994,0.142827 0.21995,0.142022 0.21995,0.141204 0.21994,0.140372 0.21995,0.139522 0.21995,0.138657 0.21994,0.137779 0.21995,0.136884 0.21995,0.135976 0.21994,0.135051 0.21995,0.134113 0.21994,0.13316 0.21995,0.132194 0.21995,0.131211 0.21994,0.130215 0.21995,0.129205 0.21995,0.128181 0.21994,0.127143 0.21995,0.126091 0.21995,0.125024 0.21994,0.123947 0.21995,0.122854 0.21995,0.121748 0.21994,0.120628 0.21995,0.119497 0.21995,0.118351 0.21994,0.117194 0.21995,0.116023 0.21994,0.11484 0.21995,0.113644 0.21995,0.112435 0.21994,0.111215 0.21995,0.109983 0.21995,0.108738 0.21994,0.107484 0.21995,0.106214 0.21995,0.104936 0.21994,0.103645 0.21995,0.102343 0.21995,0.101031 0.21994,0.09971 0.21995,0.09837 0.21995,0.09702 0.21994,0.09567 0.21995,0.0943 0.21994,0.09293 0.21995,0.09154 0.21995,0.09014 0.21994,0.08874 0.21995,0.08732 0.21995,0.0859 0.21994,0.08446 0.21995,0.08302 0.21995,0.08157 0.21994,0.0801 0.21995,0.07863 0.21995,0.07715 0.21994,0.07566 0.21995,0.07417 0.21995,0.07267 0.21994,0.07115 0.21995,0.06964 0.21994,0.06811 0.21995,0.06658 0.21995,0.06503 0.21994,0.06348 0.21995,0.06193 0.21995,0.06037 0.21994,0.0588 0.21995,0.05722 0.21995,0.05564 0.21994,0.05405 0.21995,0.05246 0.21995,0.05086 0.21994,0.04926 0.21995,0.04765 0.21995,0.04603 0.21994,0.04441 0.21995,0.04279 0.21994,0.04116 0.21995,0.03953 0.21995,0.03789 0.21994,0.03624 0.21995,0.0346 0.21995,0.03295 0.21994,0.0313 0.21995,0.02964 0.21995,0.02798 0.21994,0.02632 0.21995,0.02465 0.21995,0.02298 0.21994,0.02131 0.21995,0.01964 0.21995,0.01796 0.21994,0.01629 0.21995,0.0146 0.21994,0.01292 0.21995,0.01125 0.21995,0.0096 0.21994,0.0079 0.21995,0.0062 0.21995,0.0045 0.21994,0.0028 0.21995,0.0012 0.21995,-5.18e-4 0.21994,-0.0022 0.21995,-0.0039 0.21995,-0.0056 0.21994,-0.0073 0.21995,-0.009 0.21995,-0.01068 0.21994,-0.01235 0.21995,-0.01404 0.21994,-0.01572 0.21995,-0.0174 0.21995,-0.01907 0.21994,-0.02075 0.21995,-0.02242 0.21995,-0.02409 0.21994,-0.02576 0.21995,-0.02742 0.21995,-0.02908 0.21994,-0.03074 0.21995,-0.03239 0.21995,-0.03404 0.21994,-0.03569 0.21995,-0.03733 0.21995,-0.03897 0.21994,-0.04061 0.21995,-0.04224 0.21994,-0.04387 0.21995,-0.04549 0.21995,-0.04711 0.21994,-0.04872 0.21995,-0.05032 0.21995,-0.05192 0.21994,-0.05352 0.21995,-0.05511 0.21995,-0.05669 0.21994,-0.05827 0.21995,-0.05984 0.21995,-0.0614 0.21994,-0.06296 0.21995,-0.06451 0.21995,-0.06606 0.21994,-0.06759 0.21995,-0.06912 0.21994,-0.07064 0.21995,-0.07216 0.21995,-0.07367 0.21994,-0.07516 0.21995,-0.07665 0.21995,-0.07813 0.21994,-0.07961 0.21995,-0.08107 0.21995,-0.08253 0.21994,-0.08398 0.21995,-0.08542 0.21995,-0.08684 0.21994,-0.08826 0.21995,-0.08967 0.21995,-0.09107 0.21994,-0.09246 0.21995,-0.09384 0.21994,-0.09521 0.21995,-0.09657 0.21995,-0.09792 0.21994,-0.09926 0.21995,-0.100586 0.21995,-0.101904 0.21994,-0.103208 0.21995,-0.104504 0.21995,-0.105786 0.21994,-0.107057 0.21995,-0.108318 0.21995,-0.109567 0.21994,-0.110802 0.21995,-0.112028 0.21995,-0.113238 0.21994,-0.11444 0.21995,-0.115626 0.21994,-0.116802 0.21995,-0.117964 0.21995,-0.119112 0.21994,-0.12025 0.21995,-0.121374 0.21995,-0.122482 0.21994,-0.123581 0.21995,-0.124666 0.21995,-0.125733 0.21994,-0.126792 0.21995,-0.127832 0.21995,-0.128863 0.21994,-0.129878 0.21995,-0.130878 0.21995,-0.131864 0.21994,-0.132836 0.21995,-0.133796 0.21994,-0.134737 0.21995,-0.135666 0.21995,-0.136582 0.21994,-0.137478 0.21995,-0.138365 0.21995,-0.139234 0.21994,-0.140087 0.21995,-0.140926 0.21995,-0.141749 0.21994,-0.142559 0.21995,-0.14335 0.21995,-0.144128 0.21994,-0.14489 0.21995,-0.145635 0.21995,-0.146367 0.21994,-0.14708 0.21995,-0.147778 0.21994,-0.14846 0.21995,-0.149125 0.21995,-0.149777 0.21994,-0.15041 0.21995,-0.151026 0.21995,-0.151628 0.21994,-0.152213 0.21995,-0.152781 0.21995,-0.153331 0.21994,-0.153868 0.21995,-0.154384 0.21995,-0.154886 0.21994,-0.15537 0.21995,-0.155839 0.21995,-0.156289 0.21994,-0.156723 0.21995,-0.157139 0.21994,-0.157539 0.21995,-0.157921 0.21995,-0.158288 0.21994,-0.158636 0.21995,-0.158967 0.21995,-0.159279 0.21994,-0.159577 0.21995,-0.159857 0.21995,-0.160119 0.21994,-0.160362 0.21995,-0.16059 0.21995,-0.160799 0.21994,-0.160992 0.21995,-0.161166 0.21995,-0.161325 0.21994,-0.161463 0.21995,-0.161586 0.21994,-0.161691 0.21995,-0.161778 0.21995,-0.161848 0.21994,-0.161899 0.21995,-0.161935 0.21995,-0.161952 0.21994,-0.16195 0.21995,-0.161931 0.21995,-0.161897 0.21994,-0.161843 0.21995,-0.161773 0.21995,-0.161684 0.21994,-0.161577 0.21995,-0.161455 0.21995,-0.161313 0.21994,-0.161155 0.21995,-0.16098 0.21994,-0.160784 0.21995,-0.160575 0.21995,-0.160346 0.21994,-0.1601 0.21995,-0.159838 0.21995,-0.159556 0.21994,-0.159259 0.21995,-0.158942 0.21995,-0.158611 0.21994,-0.158262 0.21995,-0.157896 0.21995,-0.157511 0.21994,-0.157112 0.21995,-0.156691 0.21995,-0.156257 0.21994,-0.155805 0.21995,-0.155338 0.21994,-0.15485 0.21995,-0.15435 0.21995,-0.153829"
         stroke-linecap="round"
         stroke-linejoin="round"
         stroke-miterlimit="10"
         stroke-width="4.67821"
         style="display:inline;stroke:#6cd3e0"
         id="path1" />
    </g>
    <path
       style="font-size:92.152px;font-family:'LEMON MILK';-inkscape-font-specification:'LEMON MILK';letter-spacing:-5.38113px;white-space:pre;stroke-width:0.672641;opacity:1;fill:#000000;fill-opacity:1"
       d="m 277.42399,60.196285 c 10.79906,0 18.76337,-4.72459 25.01783,-10.889055 l -6.56943,-9.179203 c -4.99457,4.94957 -11.38401,8.63925 -18.80837,8.63925 -13.00387,0 -25.73776,-11.29402 -25.73776,-25.91775 0,-14.5337386 12.55391,-26.0527387 25.69277,-26.0527387 7.10938,0 13.72381,3.37470706 18.80836,8.4592657 l 6.61443,-8.9542227 c -7.10938,-6.9293983 -15.79363,-10.9340513 -25.19781,-11.0690393 -20.38323,0 -37.43675,17.143512 -37.43675,37.571739 0,20.473222 17.05352,37.391754 37.61673,37.391754 z m 40.06493,-12.508914 v -61.194688 h -11.38401 v 72.533703 h 43.7362 V 47.687371 Z m 69.76235,-61.194688 -21.68812,49.090738 -21.59813,-49.090738 h -12.10395 l 33.34211,74.018574 h 0.76493 l 33.4771,-74.018574 z m 68.72743,72.533703 -21.10317,-29.02248 c 8.32428,-2.699766 14.35376,-10.844059 14.35376,-20.2032465 0,-12.913879 -11.06904,-23.3079765 -24.56787,-23.3079765 h -22.54304 l 0.045,72.533703 h 11.38401 V 30.948824 h 8.90923 l 19.52831,28.077562 z M 413.50239,21.499644 V -2.2132976 h 11.42901 c 6.74941,0 12.55391,4.9945664 12.55391,11.7439805 0,6.4794371 -5.71451,12.0139571 -12.55391,11.9689611 z"
       id="text5"
       aria-label="CLVR"
       inkscape:label="CLVR"
       transform="translate(0)" />
    <text
       style="font-size:92.152px;font-family:Basic;letter-spacing:-5.38113px;white-space:pre;display:none;stroke-width:0.672641"
       x="236.29756"
       y="59.026386"
       id="text4"><tspan
         style="font-style:normal;font-variant:normal;font-weight:normal;font-stretch:normal;font-family:'LEMON MILK';-inkscape-font-specification:'LEMON MILK';stroke-width:0.672641"
         id="tspan4">CLVR</tspan></text>
  </g>
</svg>
